{
	"asset":{
		"version":"2.0",
		"generator":"Created using the official Cinema 4D glTF Exporter 1.000x290161"
	},
	"scenes":[{
		"nodes":[0,
		1]
	}],
	"nodes":[{
		"name":"Proc3Durale",
		"translation":[0.0,
		0.0,
		0.0],
		"rotation":[0.08715574443340302,
		0.0,
		0.0,
		-0.9961947202682495],
		"scale":[1.0,
		1.0,
		1.0],
		"mesh":0
	},
	{
		"name":"Sphere",
		"mesh":1
	}],
	"meshes":[{
		"primitives":[{
			"attributes":{
				"POSITION":1,
				"NORMAL":2
			},
			"indices":0,
			"material":0
		}]
	},
	{
		"primitives":[{
			"attributes":{
				"POSITION":4,
				"NORMAL":5,
				"TEXCOORD_0":6
			},
			"indices":3,
			"material":1
		}]
	}],
	"accessors":[{
		"bufferView":0,
		"type":"SCALAR",
		"componentType":5123,
		"count":44256,
		"byteOffset":0,
		"min":[0],
		"max":[7598]
	},
	{
		"bufferView":1,
		"type":"VEC3",
		"componentType":5126,
		"count":7599,
		"byteOffset":0,
		"min":[-0.9322271347045898,
		-0.9495952129364014,
		-0.8758330345153809],
		"max":[0.9330753684043884,
		0.9499432444572449,
		0.9977697134017944]
	},
	{
		"bufferView":1,
		"type":"VEC3",
		"componentType":5126,
		"count":7599,
		"byteOffset":12,
		"min":[-0.999980092048645,
		-1.0,
		-1.0],
		"max":[0.999980092048645,
		1.0,
		1.0]
	},
	{
		"bufferView":2,
		"type":"SCALAR",
		"componentType":5123,
		"count":1584,
		"byteOffset":0,
		"min":[0],
		"max":[322]
	},
	{
		"bufferView":3,
		"type":"VEC3",
		"componentType":5126,
		"count":323,
		"byteOffset":0,
		"min":[-1.0,
		-1.0,
		-1.0],
		"max":[1.0,
		1.0,
		1.0]
	},
	{
		"bufferView":3,
		"type":"VEC3",
		"componentType":5126,
		"count":323,
		"byteOffset":12,
		"min":[-1.0,
		-1.0,
		-1.0],
		"max":[1.0,
		1.0,
		1.0]
	},
	{
		"bufferView":3,
		"type":"VEC2",
		"componentType":5126,
		"count":323,
		"byteOffset":24,
		"min":[0.0,
		0.0],
		"max":[1.0,
		1.0]
	}],
	"bufferViews":[{
		"buffer":0,
		"byteOffset":0,
		"byteLength":88512,
		"target":34963
	},
	{
		"buffer":0,
		"byteOffset":88512,
		"byteLength":182376,
		"target":34962,
		"byteStride":24
	},
	{
		"buffer":1,
		"byteOffset":0,
		"byteLength":3168,
		"target":34963
	},
	{
		"buffer":1,
		"byteOffset":3168,
		"byteLength":10336,
		"target":34962,
		"byteStride":32
	}],
	"buffers":[{
		"uri":"data:application/octet-stream;base64,",
		"byteLength":270888
	},
	{
		"uri":"data:application/octet-stream;base64,",
		"byteLength":13504
	}],
	"materials":[{
		"pbrMetallicRoughness":{
			"baseColorFactor":[1.0,
			1.0,
			1.0,
			1.0],
			"metallicFactor":1.0,
			"roughnessFactor":1.0
		},
		"emissiveFactor":[0.0,
		0.0,
		0.0],
		"alphaMode":"OPAQUE",
		"doubleSided":false,
		"name":""
	},
	{
		"pbrMetallicRoughness":{
			"baseColorFactor":[1.0,
			1.0,
			1.0,
			0.0],
			"metallicFactor":1.0,
			"roughnessFactor":1.0
		},
		"emissiveFactor":[0.0,
		0.0,
		0.0],
		"alphaMode":"BLEND",
		"doubleSided":false,
		"name":""
	}]
}