{
	"asset":{
		"version":"2.0",
		"generator":"Created using the official Cinema 4D glTF Exporter 1.000x290161"
	},
	"scenes":[{
		"nodes":[0]
	}],
	"nodes":[{
		"name":"Cloner",
		"translation":[0.0,
		0.05000000074505806,
		0.0],
		"rotation":[0.0,
		0.0,
		0.7217186093330383,
		0.6921865344047546],
		"scale":[1.0,
		1.0,
		1.0],
		"children":[1,
		2,
		3,
		4,
		5]
	},
	{
		"name":"Extrude 0",
		"mesh":0
	},
	{
		"name":"Extrude 1",
		"translation":[0.0,
		0.0,
		0.0],
		"rotation":[0.0,
		0.0,
		0.3826834261417389,
		-0.9238795042037964],
		"scale":[1.0,
		1.0,
		1.0],
		"mesh":1
	},
	{
		"name":"Extrude 2",
		"translation":[0.0,
		0.0,
		0.0],
		"rotation":[0.0,
		0.0,
		0.7071067690849304,
		-0.7071067690849304],
		"scale":[1.0,
		1.0,
		1.0],
		"mesh":2
	},
	{
		"name":"Extrude 3",
		"translation":[0.0,
		0.0,
		0.0],
		"rotation":[0.0,
		0.0,
		0.9238795042037964,
		-0.3826834261417389],
		"scale":[1.0,
		1.0,
		1.0],
		"mesh":3
	},
	{
		"name":"Extrude 4",
		"translation":[0.0,
		0.0,
		0.0],
		"rotation":[0.0,
		0.0,
		1.0,
		-6.123234262925839e-17],
		"scale":[1.0,
		1.0,
		1.0],
		"mesh":4
	}],
	"meshes":[{
		"primitives":[{
			"attributes":{
				"POSITION":1,
				"NORMAL":2,
				"TEXCOORD_0":3
			},
			"indices":0,
			"material":0
		}]
	},
	{
		"primitives":[{
			"attributes":{
				"POSITION":5,
				"NORMAL":6,
				"TEXCOORD_0":7
			},
			"indices":4,
			"material":1
		}]
	},
	{
		"primitives":[{
			"attributes":{
				"POSITION":9,
				"NORMAL":10,
				"TEXCOORD_0":11
			},
			"indices":8,
			"material":2
		}]
	},
	{
		"primitives":[{
			"attributes":{
				"POSITION":13,
				"NORMAL":14,
				"TEXCOORD_0":15
			},
			"indices":12,
			"material":3
		}]
	},
	{
		"primitives":[{
			"attributes":{
				"POSITION":17,
				"NORMAL":18,
				"TEXCOORD_0":19
			},
			"indices":16,
			"material":4
		}]
	}],
	"accessors":[{
		"bufferView":0,
		"type":"SCALAR",
		"componentType":5123,
		"count":1884,
		"byteOffset":0,
		"min":[0],
		"max":[641]
	},
	{
		"bufferView":1,
		"type":"VEC3",
		"componentType":5126,
		"count":642,
		"byteOffset":0,
		"min":[-2.287187099456787,
		-12.993745803833008,
		-1.0027021169662476],
		"max":[2.1511218547821047,
		0.29777684807777407,
		0.0014133243821561337]
	},
	{
		"bufferView":1,
		"type":"VEC3",
		"componentType":5126,
		"count":642,
		"byteOffset":12,
		"min":[-0.9999834299087524,
		-0.9995391964912415,
		-1.0],
		"max":[0.9999956488609314,
		0.999164342880249,
		1.0]
	},
	{
		"bufferView":1,
		"type":"VEC2",
		"componentType":5126,
		"count":642,
		"byteOffset":24,
		"min":[0.0,
		0.0],
		"max":[1.0,
		1.0]
	},
	{
		"bufferView":2,
		"type":"SCALAR",
		"componentType":5123,
		"count":1884,
		"byteOffset":0,
		"min":[0],
		"max":[641]
	},
	{
		"bufferView":3,
		"type":"VEC3",
		"componentType":5126,
		"count":642,
		"byteOffset":0,
		"min":[-2.287187099456787,
		-12.993745803833008,
		-1.0027021169662476],
		"max":[2.1511218547821047,
		0.29777684807777407,
		0.0014133243821561337]
	},
	{
		"bufferView":3,
		"type":"VEC3",
		"componentType":5126,
		"count":642,
		"byteOffset":12,
		"min":[-0.9999834299087524,
		-0.9995391964912415,
		-1.0],
		"max":[0.9999956488609314,
		0.999164342880249,
		1.0]
	},
	{
		"bufferView":3,
		"type":"VEC2",
		"componentType":5126,
		"count":642,
		"byteOffset":24,
		"min":[0.0,
		0.0],
		"max":[1.0,
		1.0]
	},
	{
		"bufferView":4,
		"type":"SCALAR",
		"componentType":5123,
		"count":1884,
		"byteOffset":0,
		"min":[0],
		"max":[641]
	},
	{
		"bufferView":5,
		"type":"VEC3",
		"componentType":5126,
		"count":642,
		"byteOffset":0,
		"min":[-2.287187099456787,
		-12.993745803833008,
		-1.0027021169662476],
		"max":[2.1511218547821047,
		0.29777684807777407,
		0.0014133243821561337]
	},
	{
		"bufferView":5,
		"type":"VEC3",
		"componentType":5126,
		"count":642,
		"byteOffset":12,
		"min":[-0.9999834299087524,
		-0.9995391964912415,
		-1.0],
		"max":[0.9999956488609314,
		0.999164342880249,
		1.0]
	},
	{
		"bufferView":5,
		"type":"VEC2",
		"componentType":5126,
		"count":642,
		"byteOffset":24,
		"min":[0.0,
		0.0],
		"max":[1.0,
		1.0]
	},
	{
		"bufferView":6,
		"type":"SCALAR",
		"componentType":5123,
		"count":1884,
		"byteOffset":0,
		"min":[0],
		"max":[641]
	},
	{
		"bufferView":7,
		"type":"VEC3",
		"componentType":5126,
		"count":642,
		"byteOffset":0,
		"min":[-2.287187099456787,
		-12.993745803833008,
		-1.0027021169662476],
		"max":[2.1511218547821047,
		0.29777684807777407,
		0.0014133243821561337]
	},
	{
		"bufferView":7,
		"type":"VEC3",
		"componentType":5126,
		"count":642,
		"byteOffset":12,
		"min":[-0.9999834299087524,
		-0.9995391964912415,
		-1.0],
		"max":[0.9999956488609314,
		0.999164342880249,
		1.0]
	},
	{
		"bufferView":7,
		"type":"VEC2",
		"componentType":5126,
		"count":642,
		"byteOffset":24,
		"min":[0.0,
		0.0],
		"max":[1.0,
		1.0]
	},
	{
		"bufferView":8,
		"type":"SCALAR",
		"componentType":5123,
		"count":1884,
		"byteOffset":0,
		"min":[0],
		"max":[641]
	},
	{
		"bufferView":9,
		"type":"VEC3",
		"componentType":5126,
		"count":642,
		"byteOffset":0,
		"min":[-2.287187099456787,
		-12.993745803833008,
		-1.0027021169662476],
		"max":[2.1511218547821047,
		0.29777684807777407,
		0.0014133243821561337]
	},
	{
		"bufferView":9,
		"type":"VEC3",
		"componentType":5126,
		"count":642,
		"byteOffset":12,
		"min":[-0.9999834299087524,
		-0.9995391964912415,
		-1.0],
		"max":[0.9999956488609314,
		0.999164342880249,
		1.0]
	},
	{
		"bufferView":9,
		"type":"VEC2",
		"componentType":5126,
		"count":642,
		"byteOffset":24,
		"min":[0.0,
		0.0],
		"max":[1.0,
		1.0]
	}],
	"bufferViews":[{
		"buffer":0,
		"byteOffset":0,
		"byteLength":3768,
		"target":34963
	},
	{
		"buffer":0,
		"byteOffset":3768,
		"byteLength":20544,
		"target":34962,
		"byteStride":32
	},
	{
		"buffer":1,
		"byteOffset":0,
		"byteLength":3768,
		"target":34963
	},
	{
		"buffer":1,
		"byteOffset":3768,
		"byteLength":20544,
		"target":34962,
		"byteStride":32
	},
	{
		"buffer":2,
		"byteOffset":0,
		"byteLength":3768,
		"target":34963
	},
	{
		"buffer":2,
		"byteOffset":3768,
		"byteLength":20544,
		"target":34962,
		"byteStride":32
	},
	{
		"buffer":3,
		"byteOffset":0,
		"byteLength":3768,
		"target":34963
	},
	{
		"buffer":3,
		"byteOffset":3768,
		"byteLength":20544,
		"target":34962,
		"byteStride":32
	},
	{
		"buffer":4,
		"byteOffset":0,
		"byteLength":3768,
		"target":34963
	},
	{
		"buffer":4,
		"byteOffset":3768,
		"byteLength":20544,
		"target":34962,
		"byteStride":32
	}],
	"buffers":[{
		"uri":"data:application/octet-stream;base64,",
		"byteLength":24312
	},
	{
		"uri":"data:application/octet-stream;base64,",
		"byteLength":24312
	},
	{
		"uri":"data:application/octet-stream;base64,",
		"byteLength":24312
	},
	{
		"uri":"data:application/octet-stream;base64,",
		"byteLength":24312
	},
	{
		"uri":"data:application/octet-stream;base64,",
		"byteLength":24312
	}],
	"materials":[{
		"pbrMetallicRoughness":{
			"baseColorFactor":[1.0,
			1.0,
			1.0,
			1.0],
			"metallicFactor":1.0,
			"roughnessFactor":1.0
		},
		"emissiveFactor":[0.0,
		0.0,
		0.0],
		"alphaMode":"OPAQUE",
		"doubleSided":false,
		"name":""
	},
	{
		"pbrMetallicRoughness":{
			"baseColorFactor":[1.0,
			1.0,
			1.0,
			1.0],
			"metallicFactor":1.0,
			"roughnessFactor":1.0
		},
		"emissiveFactor":[0.0,
		0.0,
		0.0],
		"alphaMode":"OPAQUE",
		"doubleSided":false,
		"name":""
	},
	{
		"pbrMetallicRoughness":{
			"baseColorFactor":[1.0,
			1.0,
			1.0,
			1.0],
			"metallicFactor":1.0,
			"roughnessFactor":1.0
		},
		"emissiveFactor":[0.0,
		0.0,
		0.0],
		"alphaMode":"OPAQUE",
		"doubleSided":false,
		"name":""
	},
	{
		"pbrMetallicRoughness":{
			"baseColorFactor":[1.0,
			1.0,
			1.0,
			1.0],
			"metallicFactor":1.0,
			"roughnessFactor":1.0
		},
		"emissiveFactor":[0.0,
		0.0,
		0.0],
		"alphaMode":"OPAQUE",
		"doubleSided":false,
		"name":""
	},
	{
		"pbrMetallicRoughness":{
			"baseColorFactor":[1.0,
			1.0,
			1.0,
			1.0],
			"metallicFactor":1.0,
			"roughnessFactor":1.0
		},
		"emissiveFactor":[0.0,
		0.0,
		0.0],
		"alphaMode":"OPAQUE",
		"doubleSided":false,
		"name":""
	}]
}